<svg width="382" height="360" viewBox="0 0 382 360" fill="none" xmlns="http://www.w3.org/2000/svg">
<g clip-path="url(#clip0_58_15)">
<path d="M277.334 204.286V303.733L293.955 330.842L295.22 332.905H360.802L362.127 204.286H277.334Z" fill="#E6E6E6"/>
<path opacity="0.1" d="M277.334 204.286V303.733L293.955 330.842L294.975 204.286H277.334Z" fill="black"/>
<path d="M119.01 201.633V301.081L102.389 328.191L101.124 330.252H35.5418L34.2167 201.633H119.01Z" fill="#E6E6E6"/>
<path opacity="0.1" d="M119.01 201.633V301.081L102.389 328.191L101.369 201.633H119.01Z" fill="black"/>
<path d="M382 199.645V205.611H25.605V196.992L58.7271 179.755H352.853L382 199.645Z" fill="#E6E6E6"/>
<path opacity="0.1" d="M382 199.645V205.611H25.605V196.992L382 199.645Z" fill="black"/>
<path d="M76.6135 229.479H60.7144L54.09 224.838H83.9002L76.6135 229.479Z" fill="#3F3D56"/>
<path d="M76.6135 248.705H60.7144L54.09 244.064H83.9002L76.6135 248.705Z" fill="#3F3D56"/>
<path d="M76.6135 275.888H60.7144L54.09 271.247H83.9002L76.6135 275.888Z" fill="#3F3D56"/>
<path d="M76.6135 303.07H60.7144L54.09 298.429H83.9002L76.6135 303.07Z" fill="#3F3D56"/>
<path d="M319.73 232.13H335.629L342.253 227.49H312.443L319.73 232.13Z" fill="#3F3D56"/>
<path d="M319.73 251.357H335.629L342.253 246.716H312.443L319.73 251.357Z" fill="#3F3D56"/>
<path d="M319.73 278.54H335.629L342.253 273.899H312.443L319.73 278.54Z" fill="#3F3D56"/>
<path d="M319.73 305.722H335.629L342.253 301.081H312.443L319.73 305.722Z" fill="#3F3D56"/>
<path d="M330.557 64.7534H196.712C196.047 64.7533 195.389 64.8843 194.775 65.1389C194.161 65.3934 193.603 65.7666 193.133 66.237C192.663 66.7075 192.29 67.266 192.035 67.8806C191.781 68.4953 191.65 69.1541 191.65 69.8194V160.054C191.65 160.72 191.781 161.378 192.035 161.993C192.29 162.608 192.663 163.166 193.133 163.637C193.603 164.107 194.161 164.48 194.775 164.735C195.389 164.989 196.047 165.12 196.712 165.12H247.521L245.617 177.283C245.617 177.283 234.739 183.067 242.388 183.237C250.037 183.408 286.071 183.237 286.071 183.237C286.071 183.237 293.04 183.237 281.992 177.113L280.201 165.12H330.557C331.222 165.12 331.88 164.989 332.494 164.735C333.108 164.48 333.666 164.107 334.136 163.637C334.606 163.166 334.979 162.608 335.234 161.993C335.488 161.378 335.619 160.72 335.619 160.054V69.8194C335.619 69.1541 335.488 68.4953 335.234 67.8806C334.979 67.266 334.606 66.7075 334.136 66.237C333.666 65.7666 333.108 65.3934 332.494 65.1389C331.88 64.8843 331.222 64.7533 330.557 64.7534Z" fill="#3F3D56"/>
<path d="M330.774 70.1121H196.495V145.302H330.774V70.1121Z" fill="#F2F2F2"/>
<path d="M263.635 68.581C264.104 68.581 264.484 68.2002 264.484 67.7304C264.484 67.2607 264.104 66.8799 263.635 66.8799C263.165 66.8799 262.785 67.2607 262.785 67.7304C262.785 68.2002 263.165 68.581 263.635 68.581Z" fill="#F2F2F2"/>
<path d="M263.634 161.463C265.418 161.463 266.864 160.016 266.864 158.231C266.864 156.446 265.418 154.999 263.634 154.999C261.851 154.999 260.405 156.446 260.405 158.231C260.405 160.016 261.851 161.463 263.634 161.463Z" fill="#F2F2F2"/>
<path d="M258.602 192.424V194.125H167.156V192.764L167.281 192.424L169.535 186.3H256.732L258.602 192.424Z" fill="#3F3D56"/>
<path d="M293.794 190.758C293.627 191.471 292.998 192.223 291.577 192.934C286.478 195.486 276.109 192.254 276.109 192.254C276.109 192.254 268.12 190.893 268.12 187.32C268.345 187.166 268.579 187.027 268.821 186.903C270.965 185.768 278.073 182.967 290.677 187.022C291.605 187.314 292.435 187.858 293.073 188.593C293.355 188.871 293.568 189.213 293.693 189.589C293.819 189.965 293.853 190.366 293.794 190.758Z" fill="#3F3D56"/>
<path opacity="0.1" d="M293.793 190.758C287.552 193.152 281.989 193.33 276.279 189.362C274.12 187.764 271.506 186.902 268.821 186.903C270.965 185.768 278.073 182.967 290.677 187.022C291.605 187.314 292.435 187.858 293.073 188.593C293.355 188.871 293.568 189.213 293.693 189.589C293.819 189.965 293.853 190.366 293.793 190.758Z" fill="black"/>
<path d="M285.968 189.361C287.188 189.361 288.178 189.057 288.178 188.681C288.178 188.305 287.188 188.001 285.968 188.001C284.747 188.001 283.758 188.305 283.758 188.681C283.758 189.057 284.747 189.361 285.968 189.361Z" fill="#F2F2F2"/>
<path opacity="0.1" d="M258.602 192.424V194.125H167.156V192.764L167.281 192.424H258.602Z" fill="black"/>
<path d="M50.8455 4.32497e-05C49.9174 -0.0762183 48.9881 0.131554 48.1806 0.595829C47.3878 1.1392 46.8881 2.09114 46.3781 2.97697C44.4279 6.4043 41.7878 9.38894 38.625 11.7418C36.3213 13.4309 33.3925 15.5369 33.7866 18.651C33.9945 19.6794 34.3741 20.6654 34.9095 21.5676C37.0347 25.8611 42.8341 29.1792 42.2637 34.0785C44.3751 30.5408 41.5509 28.7915 43.6623 25.2538C44.6679 23.5691 46.4147 21.6673 47.9328 22.7254C48.4411 23.0796 48.7749 23.715 49.3042 24.0258C50.5671 24.7675 51.9107 23.3496 53.0286 22.3452C56.8835 18.8819 62.3655 19.7892 67.1625 20.8683C69.4272 21.3777 71.9147 22.0461 73.2534 24.2123C75.0136 27.0605 71.5811 30.1365 70.7138 33.3566C70.643 33.631 70.6397 33.9185 70.7041 34.1944C70.7685 34.4704 70.8987 34.7266 71.0836 34.9412C71.2685 35.1558 71.5026 35.3224 71.7659 35.4268C72.0292 35.5311 72.3138 35.57 72.5954 35.5403C74.0347 35.3982 75.7398 35.2817 75.825 34.6496C77.636 34.7141 79.8549 34.5088 80.6308 32.6216C80.868 31.8749 80.9933 31.0972 81.0028 30.3137C81.2876 27.1436 82.632 24.2515 83.5226 21.2342C84.4132 18.217 84.8005 14.681 83.2975 12.0059C82.7611 11.1159 82.0977 10.309 81.3284 9.61075C72.7993 1.35007 61.5854 -0.0122187 50.8455 4.32497e-05Z" fill="#2F2E41"/>
<path d="M44.1186 40.2667C44.1186 40.2667 45.9735 55.737 39.1721 56.9747C32.3707 58.2123 45.3552 79.252 45.3552 79.252L76.2706 82.9648L68.8509 58.2123C68.8509 58.2123 63.9045 56.3558 66.996 43.9796C70.0876 31.6033 44.1186 40.2667 44.1186 40.2667Z" fill="#FFB8B8"/>
<path d="M25.2601 306.047L27.7336 340.082H40.7176L37.0082 306.047H25.2601Z" fill="#FFB8B8"/>
<path d="M120.48 241.691L122.334 270.156L136.556 263.968L130.991 240.453L120.48 241.691Z" fill="#FFB8B8"/>
<path d="M15.9855 176.096C15.9855 176.096 16.6038 211.988 20.3137 223.745C24.0236 235.503 23.4052 236.121 22.7869 237.978C22.1686 239.834 21.5503 238.597 21.5503 241.691C21.5503 244.785 20.3137 293.671 21.5503 298.003C22.7869 302.334 17.8405 309.76 21.5503 310.379C25.2602 310.998 42.5728 310.379 43.1911 306.666C43.8094 302.953 38.2447 301.716 40.7179 299.24C43.1911 296.765 46.901 246.022 46.901 246.022L55.5573 210.75L71.6334 192.186H105.64L116.152 233.027C116.152 233.027 111.823 244.785 114.915 244.785C118.007 244.785 136.556 248.498 136.556 234.884C136.556 221.27 130.373 181.047 129.136 179.809C127.899 178.572 129.754 174.24 127.899 172.383C126.045 170.527 104.404 157.532 96.3657 155.057C88.3277 152.581 77.0517 149.635 77.0517 149.635L15.9855 176.096Z" fill="#2F2E41"/>
<path d="M136.556 259.017C136.556 259.017 127.281 255.923 122.953 265.206C118.625 274.488 120.48 276.963 120.48 276.963C120.48 276.963 134.701 281.914 137.174 279.438C138.25 278.361 141.667 277.987 145.184 277.908C150.541 277.788 151.966 270.203 146.907 268.437C146.756 268.384 146.603 268.338 146.449 268.3C141.502 267.062 136.556 259.017 136.556 259.017Z" fill="#2F2E41"/>
<path d="M58.0305 50.4771C68.275 50.4771 76.5798 42.1655 76.5798 31.9127C76.5798 21.6598 68.275 13.3483 58.0305 13.3483C47.7861 13.3483 39.4813 21.6598 39.4813 31.9127C39.4813 42.1655 47.7861 50.4771 58.0305 50.4771Z" fill="#FFB8B8"/>
<path d="M33.9165 64.7098C33.9165 64.7098 64.2136 70.8979 71.6334 60.9969C79.0531 51.0959 82.1446 88.8435 82.1446 88.8435L85.8545 128.448L80.2897 150.106C80.2897 150.106 51.2291 173.621 41.9545 175.478C32.6799 177.334 18.4587 178.572 18.4587 178.572C18.4587 178.572 22.7869 109.883 22.7869 108.646C22.7869 107.408 33.9165 64.7098 33.9165 64.7098Z" fill="#543884"/>
<path d="M43.1306 53.1041C43.1306 53.1041 36.3897 49.2394 34.5348 52.9523C32.6799 56.6652 15.3672 65.9474 13.5123 65.9474C11.6573 65.9474 17.2221 117.309 14.7489 123.497C12.2757 129.685 0.527785 174.859 7.32919 178.572C14.1306 182.284 9.18411 174.859 15.9855 184.141C22.7869 193.423 56.1756 193.423 58.0305 189.71C59.8855 185.997 43.1911 158.151 46.2827 132.16C49.3742 106.17 54.3207 70.2791 49.9925 65.3286C45.6644 60.3781 43.1306 53.1041 43.1306 53.1041Z" fill="#2F2E41"/>
<path d="M65.4503 57.284L66.3115 54.3177C66.3115 54.3177 92.0376 62.8534 93.2742 68.4227C94.5108 73.992 93.8925 112.977 89.5643 116.071C85.2362 119.165 79.0531 124.116 83.3812 131.542C87.7094 138.967 92.6558 147.012 96.3657 147.631C100.076 148.25 106.877 152.581 105.022 156.913C103.167 161.245 80.908 153.2 80.908 153.2C80.908 153.2 66.0686 142.062 66.6869 124.735C67.3052 107.408 65.4503 57.284 65.4503 57.284Z" fill="#2F2E41"/>
<path d="M87.091 130.304L72.2516 158.151C72.2516 158.151 50.6108 180.428 62.977 182.903C75.3432 185.379 82.1446 162.482 82.1446 162.482L98.2206 139.586L87.091 130.304Z" fill="#FFB8B8"/>
<path d="M51.7491 4.85747C51.0014 4.80202 50.2525 4.9474 49.5798 5.27857C48.9715 5.72317 48.4702 6.29817 48.1124 6.96154C46.4632 9.44433 44.3134 11.5545 41.8011 13.1565C39.9258 14.3503 37.5416 15.8388 37.8624 18.0399C38.0366 18.7778 38.3466 19.4769 38.7765 20.1013C40.5125 23.1666 41.2036 26.7144 40.7452 30.2079L45.9017 22.7067C46.7203 21.5159 48.1422 20.1718 49.3781 20.9196C49.7919 21.17 50.0636 21.6191 50.4944 21.8387C51.5225 22.363 52.6162 21.3608 53.5262 20.6509C56.6643 18.203 61.1269 18.8443 65.0319 19.607C66.8754 19.9671 68.9003 20.4395 69.9901 21.9706C71.8011 24.5149 69.9101 28.1914 70.967 31.1307C71.2629 30.9234 71.5142 30.6587 71.7059 30.3524C71.8977 30.0461 72.0261 29.7044 72.0835 29.3475C73.5577 29.3931 75.364 29.2481 75.9956 27.9142C76.1877 27.3914 76.2901 26.8399 76.2984 26.283C76.5303 24.0423 77.6246 21.9982 78.3496 19.8657C79.0746 17.7331 79.3899 15.2339 78.1664 13.3431C77.7188 12.7025 77.1786 12.132 76.5635 11.6502C69.6204 5.81165 60.4918 4.8488 51.7491 4.85747Z" fill="#2F2E41"/>
<path d="M87.0911 65.9474L92.8519 67.4778C92.8519 67.4778 106.259 101.839 103.167 125.354C100.076 148.869 98.2206 143.918 98.2206 143.918C98.2206 143.918 93.2742 132.779 82.1446 135.255L87.0911 65.9474Z" fill="#2F2E41"/>
<path d="M26.1168 335.584C24.6257 337.612 24.9247 340.511 23.6039 342.653C22.4591 344.511 20.3015 345.485 18.8695 347.131C18.4125 347.677 18.0052 348.264 17.6522 348.883C16.3239 351.11 15.2441 353.964 16.5524 356.203C17.6048 358.004 19.817 358.708 21.8458 359.187C24.4101 359.794 27.0744 360.279 29.6683 359.816C32.2622 359.352 34.7973 357.763 35.7221 355.293C35.9039 354.672 36.12 354.062 36.3694 353.465C37.7753 350.695 42.1852 350.665 43.624 347.912C44.631 345.986 43.7054 343.657 42.7801 341.689L39.9542 335.681C39.0164 333.687 35.2148 334.834 33.2329 334.356C30.6481 333.733 27.9763 333.046 26.1168 335.584Z" fill="#2F2E41"/>
<path d="M5.47424 142.68L31.4432 182.903C31.4432 182.903 47.5193 203.324 52.4657 194.042C57.4122 184.76 35.1531 169.289 35.1531 169.289L18.4587 138.349L5.47424 142.68Z" fill="#FFB8B8"/>
<path d="M18.4587 67.185L13.5123 65.9474C13.5123 65.9474 3.61932 69.0415 1.14609 82.0365C-1.32715 95.0316 0.527774 147.012 3.61932 147.631C6.71087 148.25 18.8884 138.58 20.8377 140.63C22.7869 142.68 16.6038 132.16 18.4587 126.591C20.3136 121.022 18.4587 67.185 18.4587 67.185Z" fill="#2F2E41"/>
<path d="M250.925 94.807H234.944V98.6574H250.925V94.807Z" fill="#111E6C"/>
<path d="M306.266 94.807H300.643V98.6574H306.266V94.807Z" fill="#111E6C"/>
<path d="M317.512 94.807H311.889V98.6574H317.512V94.807Z" fill="#111E6C"/>
<path d="M294.724 94.807H256.548V98.6574H294.724V94.807Z" fill="#111E6C"/>
<path d="M230.801 119.686H214.82V123.537H230.801V119.686Z" fill="#111E6C"/>
<path d="M286.142 119.686H280.519V123.537H286.142V119.686Z" fill="#111E6C"/>
<path d="M297.388 119.686H291.765V123.537H297.388V119.686Z" fill="#111E6C"/>
<path d="M274.6 119.686H236.424V123.537H274.6V119.686Z" fill="#111E6C"/>
<path d="M296.796 103.396H280.815V107.247H296.796V103.396Z" fill="#111E6C"/>
<path d="M318.4 103.396H302.419V107.247H318.4V103.396Z" fill="#111E6C"/>
<path d="M220.443 103.396H214.82V107.247H220.443V103.396Z" fill="#111E6C"/>
<path d="M231.689 103.396H226.066V107.247H231.689V103.396Z" fill="#111E6C"/>
<path d="M275.488 103.396H237.312V107.247H275.488V103.396Z" fill="#111E6C"/>
<path d="M263.65 111.689H247.67V115.54H263.65V111.689Z" fill="#111E6C"/>
<path d="M242.047 111.689H226.066V115.54H242.047V111.689Z" fill="#111E6C"/>
<path d="M220.443 111.689H214.82V115.54H220.443V111.689Z" fill="#111E6C"/>
<path d="M318.4 111.689H312.777V115.54H318.4V111.689Z" fill="#111E6C"/>
<path d="M307.154 111.689H268.977V115.54H307.154V111.689Z" fill="#111E6C"/>
</g>
<defs>
<clipPath id="clip0_58_15">
<rect width="382" height="360" fill="white"/>
</clipPath>
</defs>
</svg>
