<svg width="500" height="357.37" viewBox="0 0 638 456" fill="none" xmlns="http://www.w3.org/2000/svg">
<g clip-path="url(#clip0_12_140)">
<path d="M253.668 398.83C387.37 398.83 495.757 397.044 495.757 394.842C495.757 392.639 387.37 390.853 253.668 390.853C119.965 390.853 11.5784 392.639 11.5784 394.842C11.5784 397.044 119.965 398.83 253.668 398.83Z" fill="#3F3D56"/>
<path d="M338.397 415.449C485.469 415.449 604.694 410.836 604.694 405.145C604.694 399.455 485.469 394.841 338.397 394.841C191.326 394.841 72.1007 399.455 72.1007 405.145C72.1007 410.836 191.326 415.449 338.397 415.449Z" fill="#3F3D56"/>
<path d="M289.249 430.739C361.427 430.739 419.938 426.126 419.938 420.435C419.938 414.744 361.427 410.131 289.249 410.131C217.072 410.131 158.561 414.744 158.561 420.435C158.561 426.126 217.072 430.739 289.249 430.739Z" fill="#3F3D56"/>
<path d="M478.132 438.051C510.272 438.051 536.327 435.67 536.327 432.733C536.327 429.796 510.272 427.415 478.132 427.415C445.992 427.415 419.938 429.796 419.938 432.733C419.938 435.67 445.992 438.051 478.132 438.051Z" fill="#3F3D56"/>
<path d="M398.323 456C413.566 456 425.924 453.619 425.924 450.682C425.924 447.745 413.566 445.364 398.323 445.364C383.079 445.364 370.722 447.745 370.722 450.682C370.722 453.619 383.079 456 398.323 456Z" fill="#3F3D56"/>
<path d="M173.526 433.398C188.769 433.398 201.126 431.017 201.126 428.08C201.126 425.143 188.769 422.762 173.526 422.762C158.282 422.762 145.925 425.143 145.925 428.08C145.925 431.017 158.282 433.398 173.526 433.398Z" fill="#3F3D56"/>
<path d="M309.867 367.918L312.527 386.532L325.829 385.202L324.499 365.924L309.867 367.918Z" fill="#FFB8B8"/>
<path d="M246.684 367.918L244.024 386.532L230.722 385.202L232.053 365.924L246.684 367.918Z" fill="#FFB8B8"/>
<path d="M227.397 175.136C227.397 175.136 215.426 189.096 218.086 211.034C220.746 232.971 225.402 282.828 225.402 282.828L228.727 371.242L250.01 369.913L253.335 294.794L263.976 234.3L292.575 304.766C292.575 304.766 306.542 370.578 307.207 370.578C307.872 370.578 327.159 368.583 327.159 368.583L317.848 290.806C317.848 290.806 303.216 177.795 294.57 175.801C285.924 173.807 227.397 175.136 227.397 175.136Z" fill="#111E6C"/>
<path d="M327.159 382.543C327.159 382.543 315.188 374.566 310.532 383.873C305.876 393.18 309.867 399.827 309.867 399.827C309.867 399.827 313.857 402.486 311.862 405.145C309.867 407.804 309.202 425.088 326.494 422.429C343.786 419.77 335.14 401.822 335.14 401.822L327.159 382.543Z" fill="black"/>
<path d="M229.392 382.543C229.392 382.543 241.364 374.566 246.019 383.873C250.675 393.18 246.684 399.827 246.684 399.827C246.684 399.827 242.694 402.486 244.689 405.145C246.684 407.804 247.349 425.088 230.057 422.429C212.765 419.77 221.411 401.822 221.411 401.822L229.392 382.543Z" fill="black"/>
<path d="M243.692 45.8392C243.692 45.8392 249.677 62.4584 245.022 71.7651C240.366 81.0718 252.338 91.7081 252.338 91.7081C252.338 91.7081 283.596 75.7537 279.606 67.7765C275.615 59.7993 268.965 49.163 270.295 42.5154L243.692 45.8392Z" fill="#FFB8B8"/>
<path d="M255.33 52.1545C267.084 52.1545 276.613 42.6305 276.613 30.882C276.613 19.1335 267.084 9.60947 255.33 9.60947C243.576 9.60947 234.048 19.1335 234.048 30.882C234.048 42.6305 243.576 52.1545 255.33 52.1545Z" fill="#FFB8B8"/>
<path d="M240.034 70.768C240.034 70.768 261.388 88.5294 277.314 63.3619L293.905 72.7623L302.551 173.807C302.551 173.807 254 201.727 230.722 177.795L234.048 84.0633L240.034 70.768Z" fill="#D0CDE1"/>
<path d="M246.74 60.8181L216.756 80.7392L227.397 129.932L213.43 206.38L236.043 172.477L246.74 60.8181Z" fill="#111E6C"/>
<path d="M273.239 55.2733L280.603 60.1317L310.532 70.768L305.876 153.199L318.513 206.38L300.556 215.687C300.556 215.687 297.23 190.426 276.613 177.795C255.995 165.165 268.535 59.0568 273.239 55.2733Z" fill="#111E6C"/>
<path d="M223.407 184.443L232.053 190.426C232.053 190.426 221.079 202.059 219.083 200.065C218.506 199.511 218.058 198.836 217.77 198.09C217.483 197.343 217.364 196.542 217.421 195.744L215.426 191.091L223.407 184.443Z" fill="#FFB8B8"/>
<path d="M280.883 183.15L277.943 187.767C277.943 187.767 269.297 191.755 271.292 194.414C273.288 197.074 289.915 203.056 293.24 197.074L296.565 191.091L280.883 183.15Z" fill="#FFB8B8"/>
<path d="M220.746 80.0747L216.091 80.7395L208.442 130.265C208.442 130.265 205.449 139.239 208.775 160.511C212.1 181.784 215.393 195.636 215.393 195.636L230.057 185.108L223.407 167.824L232.053 104.671L220.746 80.0747Z" fill="#111E6C"/>
<path d="M299.891 69.4384L310.532 70.7679C310.532 70.7679 322.503 83.3985 324.499 96.6938C326.494 109.989 325.829 147.881 325.829 147.881L295.235 196.409L278.608 184.443L301.886 143.227L290.58 94.0348L299.891 69.4384Z" fill="#111E6C"/>
<path d="M275.626 11.6421C272.407 6.41846 267.37 2.56917 261.482 0.835132L257.158 4.29278L258.839 0.259822C257.426 0.0442492 255.995 -0.0384096 254.566 0.0129284L250.675 5.01281L252.285 0.184192C248.909 0.603532 245.657 1.7175 242.733 3.45584C239.809 5.19419 237.277 7.5192 235.297 10.2843C230.346 17.4209 229.51 27.3457 234.38 34.5382C235.717 30.4315 237.34 26.5781 238.677 22.4714C239.728 22.6146 240.793 22.6198 241.845 22.4868L243.471 18.6933L243.926 22.3264C248.967 21.8873 256.445 20.9235 261.225 20.0403L260.76 17.2532L263.541 19.5693C265.005 19.2323 265.875 18.9268 265.803 18.6933C269.357 24.4212 272.88 28.0797 276.434 33.8076C277.784 25.7282 280.166 19.0124 275.626 11.6421Z" fill="#2F2E41"/>
<path d="M274.447 33.0938C275.243 33.0938 275.888 31.8043 275.888 30.2137C275.888 28.623 275.243 27.3336 274.447 27.3336C273.651 27.3336 273.006 28.623 273.006 30.2137C273.006 31.8043 273.651 33.0938 274.447 33.0938Z" fill="#FFB8B8"/>
<path d="M504.648 406.196C505.261 427.175 492.997 434.863 477.607 435.312C477.249 435.323 476.893 435.329 476.539 435.332C475.825 435.337 475.118 435.325 474.419 435.296C460.499 434.718 449.482 427.333 448.911 407.823C448.322 387.632 473.394 361.398 475.276 359.458L475.279 359.456C475.35 359.382 475.387 359.345 475.387 359.345C475.387 359.345 504.035 385.219 504.648 406.196Z" fill="#111E6C"/>
<path d="M476.499 432.133L486.275 417.601L476.518 433.696L476.539 435.331C475.825 435.337 475.118 435.325 474.419 435.296L474.903 414.276L474.89 414.114L474.908 414.083L474.954 412.097L464.248 396.559L474.942 410.61L474.98 411.03L475.346 395.149L466.098 379.04L475.372 392.359L475.276 359.458L475.276 359.348L475.279 359.456L475.893 385.387L484.321 374.854L475.92 387.62L476.104 401.826L483.86 387.962L476.133 403.914L476.235 411.813L487.514 392.501L476.269 414.568L476.499 432.133Z" fill="#3F3D56"/>
<path d="M148.165 374.952C148.778 395.931 136.514 403.619 121.123 404.068C120.766 404.079 120.41 404.085 120.056 404.087C119.342 404.093 118.635 404.081 117.935 404.052C104.016 403.474 92.9984 396.089 92.4283 376.579C91.8384 356.388 116.911 330.154 118.792 328.214L118.796 328.212C118.867 328.138 118.904 328.101 118.904 328.101C118.904 328.101 147.552 353.975 148.165 374.952Z" fill="#111E6C"/>
<path d="M120.015 400.889L129.792 386.357L120.035 402.452L120.056 404.087C119.342 404.093 118.635 404.081 117.935 404.052L118.42 383.032L118.407 382.87L118.425 382.839L118.471 380.853L107.765 365.315L118.459 379.366L118.497 379.786L118.863 363.905L109.615 347.796L118.889 361.115L118.792 328.214L118.793 328.104L118.796 328.212L119.41 354.143L127.838 343.609L119.437 356.376L119.621 370.582L127.377 356.718L119.65 372.67L119.752 380.569L131.031 361.257L119.786 383.324L120.015 400.889Z" fill="#3F3D56"/>
<path d="M414.541 435.772C414.901 448.086 407.703 452.599 398.669 452.862C398.459 452.869 398.25 452.872 398.042 452.874C397.623 452.877 397.208 452.87 396.797 452.853C388.627 452.514 382.16 448.179 381.825 436.727C381.479 424.875 396.196 409.477 397.3 408.338L397.302 408.337C397.344 408.293 397.366 408.271 397.366 408.271C397.366 408.271 414.181 423.459 414.541 435.772Z" fill="#111E6C"/>
<path d="M398.018 450.996L403.757 442.466L398.03 451.914L398.042 452.874C397.623 452.877 397.208 452.87 396.797 452.853L397.082 440.515L397.074 440.42L397.085 440.401L397.112 439.235L390.828 430.115L397.105 438.363L397.127 438.609L397.342 429.287L391.914 419.832L397.357 427.65L397.3 408.338L397.301 408.273L397.302 408.337L397.663 423.557L402.61 417.375L397.679 424.868L397.787 433.207L402.339 425.069L397.804 434.432L397.864 439.069L404.484 427.733L397.884 440.686L398.018 450.996Z" fill="#3F3D56"/>
<path d="M637.942 34.0274C637.961 33.9668 637.981 33.9054 638 33.8446C637.992 33.8713 637.981 33.8969 637.973 33.9236L637.942 34.0274Z" fill="#2F2E41"/>
</g>
<defs>
<clipPath id="clip0_12_140">
<rect width="638" height="456" fill="white"/>
</clipPath>
</defs>
</svg>
